<svg width="38" height="42" viewBox="0 0 38 42" fill="none" xmlns="http://www.w3.org/2000/svg">
<path d="M20.7678 1.23223C19.7915 0.255922 18.2085 0.255922 17.2322 1.23223L1.32233 17.1421C0.34602 18.1184 0.34602 19.7014 1.32233 20.6777C2.29864 21.654 3.88155 21.654 4.85786 20.6777L19 6.53553L33.1421 20.6777C34.1184 21.654 35.7014 21.654 36.6777 20.6777C37.654 19.7014 37.654 18.1184 36.6777 17.1421L20.7678 1.23223ZM20.7678 21.2322C19.7915 20.2559 18.2085 20.2559 17.2322 21.2322L1.32233 37.1421C0.34602 38.1184 0.34602 39.7014 1.32233 40.6777C2.29864 41.654 3.88155 41.654 4.85786 40.6777L19 26.5355L33.1421 40.6777C34.1184 41.654 35.7014 41.654 36.6777 40.6777C37.654 39.7014 37.654 38.1184 36.6777 37.1421L20.7678 21.2322ZM21.5 6V3H16.5V6H21.5ZM21.5 26V23H16.5V26H21.5Z" fill="white"/>
</svg>
